<svg id="Layer_3" height="512" viewBox="0 0 64 64" width="512" xmlns="http://www.w3.org/2000/svg" data-name="Layer 3"><path d="m32 10a21 21 0 0 0 -21 21v15h42v-15a21 21 0 0 0 -21-21z" fill="#aa2b24"/><path d="m32 10a21 21 0 0 0 -21 21v12h33a5 5 0 0 0 5-5v-19.294a20.951 20.951 0 0 0 -17-8.706z" fill="#d24034"/><rect fill="#db665d" height="17" rx="4" width="26" x="17" y="19"/><path d="m8 50h48v8h-48z" fill="#474747"/><path d="m8 50v6h41a4 4 0 0 0 4-4v-2z" fill="#686868"/><path d="m26 50-8 8h10l8-8z" fill="#f3a845"/><path d="m8 50v8l8-8z" fill="#f3a845"/><path d="m6 58h52v4h-52z" fill="#474747"/><path d="m6 60h48a2 2 0 0 0 2-2h-50z" fill="#686868"/><path d="m6 46h52v4h-52z" fill="#474747"/><circle cx="32" cy="28" fill="#f3a845" r="6"/><path d="m32 34a5.971 5.971 0 0 1 -2-.349v12.349h4v-12.349a5.971 5.971 0 0 1 -2 .349z" fill="#474747"/><path d="m46 50-8 8h10l8-8z" fill="#f3a845"/><path d="m6 48h48a2 2 0 0 0 2-2h-50z" fill="#686868"/><g fill="#eecc61"><path d="m30 56 6-6h-10l-6 6z"/><path d="m10 56 6-6h-8v6z"/><path d="m49 56a3.94 3.94 0 0 0 1.2-.2l2.59-2.59a3.94 3.94 0 0 0 .21-1.21v-2h-7l-6 6z"/><path d="m32 22a5.993 5.993 0 0 0 -4.463 10h3.463a5 5 0 0 0 5-5v-3.463a5.968 5.968 0 0 0 -4-1.537z"/></g><circle cx="30.5" cy="26.5" fill="#fce79c" r="2.5"/><path d="m30 42.816a2.99 2.99 0 0 0 2-2.816v-6a5.971 5.971 0 0 1 -2-.349z" fill="#686868"/><path d="m58 51a1 1 0 0 0 1-1v-4a1 1 0 0 0 -1-1h-4v-14a22 22 0 0 0 -44 0v14h-4a1 1 0 0 0 -1 1v4a1 1 0 0 0 1 1h1v6h-1a1 1 0 0 0 -1 1v4a1 1 0 0 0 1 1h52a1 1 0 0 0 1-1v-4a1 1 0 0 0 -1-1h-1v-6zm-17.586 6 6-6h7.172l-6 6zm-16.828-6-6 6h-7.172l6-6zm2.828 0h7.172l-6 6h-7.172zm10 0h7.172l-6 6h-7.172zm-24.414-20a20 20 0 0 1 40 0v14h-17v-10.685a7 7 0 1 0 -6 0v10.685h-17zm20 2a5 5 0 1 1 5-5 5.006 5.006 0 0 1 -5 5zm0 2a7.026 7.026 0 0 0 1-.08v10.08h-2v-10.08a7.026 7.026 0 0 0 1 .08zm-25 12h50v2h-50zm6.586 4-4.586 4.586v-4.586zm43.414 10h-50v-2h50zm-6.586-4 4.586-4.586v4.586z"/><path d="m31 1h2v6h-2z"/><path d="m40.964 5.5h7.071v2h-7.071z" transform="matrix(.707 -.707 .707 .707 8.438 33.37)"/><path d="m18.5 2.964h2v7.071h-2z" transform="matrix(.707 -.707 .707 .707 1.115 15.692)"/><path d="m48 31h2a18.021 18.021 0 0 0 -18-18v2a16.019 16.019 0 0 1 16 16z"/><path d="m48 33h2v2h-2z"/></svg>